<svg id="visual" viewBox="0 0 900 600" width="900" height="600" xmlns="http://www.w3.org/2000/svg" xmlns:xlink="http://www.w3.org/1999/xlink" version="1.1"><rect x="0" y="0" width="900" height="600" fill="#002233"></rect><path d="M0 369L15 384.7C30 400.3 60 431.7 90 448.3C120 465 150 467 180 460.8C210 454.7 240 440.3 270 429.7C300 419 330 412 360 399.2C390 386.3 420 367.7 450 364.5C480 361.3 510 373.7 540 388.8C570 404 600 422 630 430.3C660 438.7 690 437.3 720 427C750 416.7 780 397.3 810 401.2C840 405 870 432 885 445.5L900 459L900 601L885 601C870 601 840 601 810 601C780 601 750 601 720 601C690 601 660 601 630 601C600 601 570 601 540 601C510 601 480 601 450 601C420 601 390 601 360 601C330 601 300 601 270 601C240 601 210 601 180 601C150 601 120 601 90 601C60 601 30 601 15 601L0 601Z" fill="#0066FF" stroke-linecap="round" stroke-linejoin="miter"></path></svg>